<svg width="21" height="21" viewBox="0 0 21 21" fill="none" xmlns="http://www.w3.org/2000/svg">
<g clip-path="url(#clip0_203_7)">
<path d="M5.38012 8.70312C4.42877 8.70312 3.65039 9.4815 3.65039 10.4329C3.65039 11.3842 4.42877 12.1626 5.38012 12.1626C6.33147 12.1626 7.10985 11.3842 7.10985 10.4329C7.10985 9.4815 6.33147 8.70312 5.38012 8.70312ZM15.7585 8.70312C14.8071 8.70312 14.0288 9.4815 14.0288 10.4329C14.0288 11.3842 14.8071 12.1626 15.7585 12.1626C16.7099 12.1626 17.4882 11.3842 17.4882 10.4329C17.4882 9.4815 16.7099 8.70312 15.7585 8.70312ZM10.5693 8.70312C9.61796 8.70312 8.83958 9.4815 8.83958 10.4329C8.83958 11.3842 9.61796 12.1626 10.5693 12.1626C11.5207 12.1626 12.299 11.3842 12.299 10.4329C12.299 9.4815 11.5207 8.70312 10.5693 8.70312Z" fill="#6D7D93"/>
</g>
<defs>
<clipPath id="clip0_203_7">
<rect width="20.7568" height="20.7568" fill="white" transform="translate(0.189453 0.0546875)"/>
</clipPath>
</defs>
</svg>
