<svg width="893" height="313" viewBox="0 0 893 313" fill="none" xmlns="http://www.w3.org/2000/svg">
<path d="M0 257.584H149.646V312.388H212.671V257.584H251.338V204.759H212.671V0.613281H130.16L0 205.672V257.584ZM150.864 204.759H66.3739V202.323L148.428 72.4676H150.864V204.759Z" fill="#1A1C22"/>
<path d="M602.397 240.506C590.2 224.428 557.364 200.879 542.862 197.055C542.721 196.905 542.597 196.766 542.489 196.64C542.21 196.312 542.12 196.157 542.118 196.159C542.117 196.159 542.138 196.2 542.169 196.278C542.19 196.332 542.275 196.568 542.322 196.919C541.206 196.655 540.21 196.518 539.352 196.521C537.397 196.528 537.536 197.736 539.363 199.776C539.363 199.776 539.364 199.777 539.364 199.777C539.623 200.066 539.917 200.373 540.243 200.695C539.865 200.869 539.552 200.924 539.399 200.939M602.397 240.506L539.335 192.103M602.397 240.506C611.005 251.853 614.828 252.208 624.423 242.567L602.397 240.506ZM539.399 200.939C539.389 200.939 539.378 200.939 539.368 200.939H539.367C539.261 200.94 539.285 200.951 539.399 200.939ZM539.399 200.939C539.712 200.941 540.123 200.982 540.637 201.077C543.981 204.255 550.253 208.819 558.461 213.866C590.962 233.85 618.115 271.437 609.833 284.952C599.754 301.399 580.821 294.833 575.385 272.992C572.478 261.316 563.932 249.373 556.39 246.45C544.074 241.687 544.039 243.1 556.064 260.418C565.817 274.458 566.875 282.819 559.959 291.225C552.382 300.431 547.298 298.814 534.797 283.246L519.123 263.733L484.596 287.866M484.596 287.866L482.065 284.245M484.596 287.866L482.065 284.245L482.065 284.245M484.596 287.866C465.601 301.142 446.88 312 442.994 312C439.109 312 420.696 299.835 402.071 284.961M482.065 284.245L516.592 260.112L519.98 257.744L522.568 260.966L538.241 280.479L538.242 280.479C541.322 284.315 543.829 287.143 545.952 289.125C548.114 291.144 549.587 292.005 550.561 292.314C551.299 292.549 551.826 292.506 552.557 292.128C553.502 291.639 554.785 290.559 556.547 288.417M482.065 284.245C472.652 290.824 463.328 296.788 455.912 301.09C452.198 303.245 449.019 304.949 446.578 306.1C445.354 306.677 444.38 307.085 443.657 307.338C443.376 307.437 443.174 307.497 443.042 307.533M556.547 288.417C556.547 288.418 556.547 288.418 556.547 288.418L559.917 291.191L556.547 288.417ZM556.547 288.417C559.391 284.961 560.317 281.951 559.879 278.488C559.397 274.678 557.201 269.799 552.436 262.939L552.435 262.938C549.435 258.617 547.102 255.169 545.521 252.532C544.732 251.217 544.064 249.996 543.586 248.9C543.16 247.923 542.647 246.534 542.682 245.05C542.701 244.225 542.894 243.177 543.544 242.167C544.218 241.121 545.16 240.464 546.083 240.1C547.666 239.476 549.279 239.675 550.203 239.834C552.257 240.188 554.98 241.168 557.984 242.329L557.987 242.331C562.923 244.244 567.565 248.762 571.219 253.868C574.952 259.085 578.071 265.493 579.672 271.924L579.673 271.925C582.158 281.91 587.491 287.481 592.317 289.156C594.684 289.978 597.047 289.932 599.274 289.011C601.529 288.078 603.935 286.12 606.066 282.643C607.101 280.955 607.435 277.684 605.674 272.335C603.975 267.177 600.61 260.998 595.859 254.423C586.368 241.287 571.878 227.303 556.147 217.63L556.146 217.63C548.312 212.812 542.023 208.313 538.262 204.9C537.311 204.037 536.459 203.187 535.764 202.371C535.119 201.615 534.389 200.636 533.949 199.52C533.538 198.479 532.937 196.015 534.829 193.92C536.367 192.217 538.47 192.106 539.335 192.103M539.335 192.103L539.351 196.444L539.336 192.103C539.335 192.103 539.335 192.103 539.335 192.103ZM443.042 307.533C442.923 307.495 442.75 307.435 442.514 307.341C441.817 307.065 440.869 306.616 439.666 305.972C437.27 304.689 434.147 302.785 430.496 300.372C423.208 295.557 414.057 288.879 404.829 281.509L402.071 284.961M443.042 307.533C442.902 307.571 442.839 307.583 442.84 307.585C442.84 307.588 442.895 307.582 442.994 307.582C443.153 307.582 443.243 307.596 443.244 307.593C443.244 307.591 443.181 307.577 443.042 307.533ZM402.071 284.961L404.828 281.509L370.98 254.461L367.172 251.418L364.517 255.506L349.54 278.564M402.071 284.961L371.691 260.684L371.928 260.319L368.222 257.913L365.464 261.364L365.804 261.636L353.245 280.971M353.245 280.971L349.54 278.564M353.245 280.971L349.54 278.564L349.54 278.564M353.245 280.971C333.052 312.053 315.476 296.326 331.29 261.316M349.54 278.564C344.686 286.035 340.281 290.215 336.931 292.071C333.653 293.888 332.277 293.142 331.711 292.636C330.708 291.738 329.385 289.129 329.623 283.722C329.852 278.521 331.523 271.532 335.317 263.135M335.317 263.135C335.316 263.135 335.316 263.135 335.316 263.135L331.29 261.316M335.317 263.135C338.058 257.067 340.181 252.368 341.493 249.073C342.14 247.447 342.671 245.967 342.965 244.743C343.109 244.146 343.252 243.387 343.249 242.592C343.246 241.932 343.148 240.326 341.875 238.975C340.374 237.38 338.46 237.351 337.429 237.519C336.462 237.678 335.653 238.074 335.142 238.355C334.062 238.949 332.854 239.864 331.626 240.869C329.112 242.925 325.58 246.148 321.064 250.269L321.026 250.304L321.026 250.304C315.688 255.175 310.849 261.007 307.316 266.532C305.547 269.297 304.061 272.055 303.003 274.641C301.972 277.161 301.225 279.813 301.225 282.277C301.225 286.005 297.686 289.81 292.428 289.81C288.089 289.81 286.026 288.218 284.939 286.137C283.647 283.665 283.237 279.537 284.52 273.819C287.058 262.503 295.694 247.474 309.607 234.365L306.577 231.149M335.317 263.135L331.29 261.316M331.29 261.316C333.996 255.328 336.037 250.805 337.309 247.636C338.432 246.722 339.087 246.271 339.401 246.097C339.414 246.09 339.425 246.085 339.434 246.08M339.434 246.08C339.455 246.07 339.467 246.065 339.468 246.064C339.468 246.063 339.457 246.068 339.434 246.08ZM339.434 246.08C339.358 246.113 339.155 246.191 338.856 246.24C338.639 246.275 338.286 246.31 337.846 246.257C339.763 241.136 338.959 240.635 334.751 244.022C334.651 243.809 334.582 243.613 334.536 243.45C334.424 243.055 334.413 242.755 334.413 242.629C334.412 242.518 334.42 242.455 334.42 242.455C334.42 242.455 334.411 242.524 334.373 242.679C334.261 243.145 334.024 243.882 333.611 244.963C331.266 246.942 328.091 249.839 324.004 253.568C313.908 262.782 305.644 275.702 305.644 282.277C305.644 288.853 299.697 294.229 292.428 294.229C269.742 294.229 277.812 258.25 306.577 231.149M306.577 231.149C321.625 216.976 339.466 205.371 346.223 205.371C352.981 205.371 358.505 200.911 358.505 195.464C358.505 184.792 322.683 205.078 291.864 233.201M306.577 231.149L309.607 234.365M291.864 233.201L309.607 234.365M291.864 233.201L288.887 229.938M291.864 233.201L288.887 229.938M309.607 234.365C316.954 227.446 324.969 221.168 331.918 216.649C335.396 214.388 338.534 212.614 341.134 211.423C343.884 210.163 345.537 209.79 346.223 209.79C354.489 209.79 362.923 204.189 362.923 195.464C362.923 194.187 362.653 192.774 361.839 191.474C361.003 190.139 359.803 189.264 358.532 188.76C356.232 187.849 353.63 188.117 351.481 188.587C346.97 189.575 341.057 192.263 334.564 195.94C321.422 203.382 304.497 215.692 288.887 229.938M309.607 234.365L348.117 115.048M348.117 115.048L343.061 122.257L316.63 106.814L316.63 106.814C301.807 98.1517 279.517 81.5244 266.9 69.7233L266.899 69.7218C260.18 63.4319 254.781 58.7619 250.47 55.596C245.997 52.3118 243.268 51.0894 241.795 50.8841C241.49 50.8417 241.328 50.8558 241.259 50.8689C241.198 50.926 241.031 51.1134 240.817 51.5874C240.091 53.1896 239.58 56.3254 239.58 61.6539C239.58 64.9282 240.894 69.2117 243.762 74.2877C246.596 79.3016 250.764 84.7677 256.006 90.3161C266.493 101.415 280.961 112.51 296.67 120.681C312.216 128.767 319.73 142.022 318.341 156.844C316.985 171.307 307.253 186.256 290.664 198.624C283.773 203.762 277.488 210.323 272.959 216.7C268.283 223.283 266.011 228.919 266.011 232.295C266.011 237.668 266.467 241.11 267.203 243.091C267.553 244.031 267.86 244.346 267.938 244.413C267.938 244.413 267.938 244.413 267.938 244.413C267.939 244.418 267.949 244.453 268.165 244.46C269.016 244.485 271.068 243.934 274.903 241.381C278.546 238.954 283.141 235.18 288.887 229.938M348.117 115.048L326.094 96.7005C326.093 96.7 326.093 96.6994 326.092 96.6989C313.936 86.5608 293.088 69.7981 279.72 59.4173C265.684 48.5069 257.201 33.6722 257.201 22.539C257.201 16.4121 258.395 11.9217 260.113 9.12164C261.734 6.4804 263.717 5.41818 265.998 5.41818C271.316 5.41818 274.795 9.20734 274.795 12.7825C274.795 15.3987 275.793 18.271 277.057 20.9437C278.377 23.7347 280.23 26.8052 282.435 29.9589C286.849 36.2707 292.883 43.218 299.506 49.3467L299.508 49.3478L322.802 70.8868L329.532 65.2762L313.744 40.3874L313.744 40.3864C307.772 30.9777 304.902 24.8029 304.189 20.3178C303.852 18.1972 304.02 16.5683 304.512 15.1741C305.013 13.7546 305.95 12.2972 307.556 10.6773C309.282 8.93662 310.571 8.07869 311.52 7.70772C312.315 7.39671 312.943 7.38986 313.704 7.66179C314.62 7.98941 315.926 8.80581 317.706 10.6071C319.466 12.3878 321.476 14.9112 323.846 18.3238L323.847 18.3249C326.912 22.7356 329.67 26.5964 332.835 29.3511C336.242 32.3165 340.052 33.9663 345.02 34.3263C349.727 34.6674 355.404 33.8427 362.644 32.2077C369.941 30.56 379.241 27.9862 391.31 24.5979L390.217 20.7034M348.117 115.048L390.217 20.7034M390.217 20.7034L391.31 24.5979M390.217 20.7034L391.31 24.5979M425.393 227.745C425.155 234.353 424.518 239.844 423.348 243.959L485.773 244.987C486.457 245.313 487.024 245.332 487.213 245.332C486.673 245.332 486.153 245.258 485.661 245.116C482.806 248.387 477.456 253.274 470.606 258.712C458.157 268.584 441.937 274.094 434.175 271.09C418.273 264.932 415.965 253.47 428.986 245.357L426.649 241.608C426.649 241.608 426.65 241.607 426.65 241.607C427.028 241.371 427.745 240.699 428.617 239.243C429.456 237.842 430.281 235.981 431.006 233.746C432.456 229.273 433.378 223.693 433.378 218.176C433.378 211.779 434.433 205.768 436.291 201.193C437.216 198.917 438.426 196.781 439.993 195.143C441.568 193.496 443.803 192.068 446.607 192.068C449.411 192.068 451.645 193.496 453.22 195.143C454.787 196.781 455.998 198.917 456.922 201.193C458.781 205.768 459.835 211.779 459.835 218.176C459.835 223.754 460.647 229.297 461.915 233.669C462.159 234.514 462.417 235.299 462.682 236.02C462.965 234.244 463.225 232.123 463.452 229.678C464.354 219.947 464.64 206.219 464.355 191.919C464.07 177.634 463.218 162.935 461.879 151.283C461.208 145.446 460.426 140.471 459.559 136.733C459.124 134.859 458.689 133.392 458.274 132.322C457.924 131.419 457.678 131.038 457.618 130.946C457.602 130.921 457.6 130.918 457.613 130.932C457.316 130.634 456.884 130.376 455.818 130.766C454.6 131.211 452.893 132.486 451.397 134.931L451.395 134.933C445.797 144.066 433.731 145.783 423.038 141.64C421.548 141.064 420.266 140.603 419.171 140.246M425.393 227.745C425.393 227.745 425.393 227.745 425.393 227.745L420.978 227.586L425.393 227.745ZM425.393 227.745C425.834 215.521 426.556 194.314 426.997 180.625C427.228 173.436 426.56 165.534 425.306 158.549C424.077 151.707 422.191 145.195 419.698 141.122L419.697 141.12C419.508 140.813 419.334 140.522 419.171 140.246M419.171 140.246C418.059 139.884 417.142 139.629 416.398 139.472C415.659 139.315 415.262 139.292 415.112 139.296C415.107 139.296 415.102 139.296 415.098 139.296M419.171 140.246C418.142 138.496 417.618 137.355 417.418 136.687C417.382 136.566 417.368 136.496 417.363 136.469M415.098 139.296C415.203 139.284 415.586 139.216 416.054 138.898C416.407 138.659 416.734 138.323 416.979 137.907C417.217 137.502 417.313 137.129 417.349 136.872C417.379 136.653 417.368 136.51 417.363 136.469M415.098 139.296C415.078 139.297 415.069 139.298 415.07 139.298C415.07 139.299 415.08 139.298 415.098 139.296ZM417.363 136.469C417.362 136.462 417.361 136.457 417.361 136.457C417.361 136.457 417.362 136.461 417.363 136.469ZM391.31 24.5979C413.879 18.2615 427.022 15.2625 440.336 15.2413M391.31 24.5979L440.336 15.2413M440.336 15.2413C453.676 15.2201 467.457 18.187 491.297 24.4485L440.336 15.2413ZM545.282 109.769C545.283 109.768 545.301 109.767 545.334 109.77C545.297 109.771 545.28 109.77 545.282 109.769ZM624.662 234.434C624.361 235.714 623.451 237.278 621.291 239.451L491.297 24.4486C503.741 27.7186 513.388 30.193 520.971 31.8027C528.499 33.4008 534.332 34.2256 539.041 34.0239C543.949 33.8137 547.785 32.4815 551.091 29.7637C554.169 27.2337 556.524 23.6919 558.922 19.8188C561.447 15.7428 564.889 12.012 568.344 9.33788C571.975 6.52795 574.92 5.41818 576.478 5.41818C579.057 5.41818 580.439 6.3796 581.329 7.82405C582.387 9.53937 583.032 12.4577 582.657 16.6056C581.913 24.8398 577.297 35.9754 568.783 46.0086L568.783 46.0094C565.003 50.4651 562.075 53.9231 560.207 56.3301C559.297 57.5021 558.487 58.6155 557.956 59.5593C557.72 59.9807 557.331 60.7221 557.152 61.6067C556.995 62.3794 556.729 65.0486 559.241 66.6161C560.208 67.2195 561.156 67.3266 561.711 67.3365C562.288 67.3469 562.78 67.2583 563.112 67.1809C563.773 67.0272 564.399 66.774 564.897 66.5497C565.93 66.0856 567.204 65.3815 568.643 64.5337C571.557 62.8175 575.722 60.1669 581.135 56.7158C587.706 52.5271 593.905 46.494 598.674 40.1567C603.384 33.8964 607.045 26.8771 607.974 20.62L607.975 20.617C608.642 16.1016 610.422 12.0907 612.612 9.30223C614.885 6.40702 617.082 5.41818 618.502 5.41818C622.802 5.41818 625.806 6.22982 627.841 7.38964C629.805 8.50859 631.081 10.0658 631.827 12.0674C633.417 16.3356 632.739 23.1615 628.858 31.8777C621.208 49.0567 602.563 70.2176 577.444 84.4587C567.438 90.1313 558.305 95.7728 551.638 100.309C548.318 102.569 545.531 104.607 543.537 106.271C542.553 107.092 541.653 107.911 540.962 108.684C540.62 109.067 540.235 109.542 539.911 110.084C539.647 110.527 539.101 111.536 539.101 112.871C539.101 113.752 539.288 114.784 539.871 115.777C540.466 116.789 541.31 117.485 542.179 117.92C543.738 118.7 545.383 118.656 546.44 118.545C548.697 118.308 551.476 117.366 554.343 116.169C560.245 113.704 568.153 109.441 576.571 104.34C593.378 94.1557 613.052 80.1212 623.921 69.1637L623.922 69.1631C630.273 62.7575 636.104 58.4557 640.672 56.3261C645.67 53.9961 647.239 55.0163 647.478 55.2569C650.026 57.8263 651.116 60.6753 651.006 63.9662C650.89 67.4296 649.42 71.7296 646.092 76.8795C639.413 87.2148 626.087 99.6922 606.019 113.622C595.209 121.121 585.34 129.43 578.122 136.829C574.521 140.521 571.495 144.071 569.338 147.251C568.259 148.841 567.343 150.417 566.684 151.935C566.044 153.409 565.531 155.088 565.531 156.811C565.531 159.769 566.966 163.16 568.676 166.303C570.497 169.649 573.065 173.472 576.14 177.514C582.299 185.61 590.734 194.897 599.982 203.482L599.983 203.484C606.789 209.797 612.039 214.91 615.957 219.179C619.906 223.482 622.309 226.723 623.607 229.286C624.858 231.758 624.932 233.291 624.662 234.434ZM241.284 50.8481C241.284 50.8483 241.281 50.8504 241.276 50.854C241.281 50.8497 241.284 50.8479 241.284 50.8481ZM241.243 50.8725C241.228 50.8795 241.219 50.8816 241.218 50.8809C241.218 50.8802 241.225 50.8767 241.243 50.8725ZM505.132 55.0346L505.131 55.033C503.523 52.4269 500.933 50.2472 498.101 48.4283C495.207 46.57 491.727 44.8781 487.96 43.3696C480.423 40.3514 471.352 37.9147 462.627 36.3585C453.943 34.8094 445.306 34.0796 438.678 34.6371C435.415 34.9116 432.239 35.527 429.739 36.7907C427.146 38.1019 424.568 40.5573 424.568 44.4423C424.568 51.7237 429.837 58.8713 437.242 59.8082L437.243 59.8083C449.03 61.2976 456.017 63.4388 473.152 71.0661C483.448 75.6508 493.374 76.9978 500.1 74.5338C503.629 73.2408 506.686 70.6962 507.698 66.6946C508.664 62.8741 507.472 58.8303 505.132 55.0346ZM445.563 91.94L445.561 91.9398C439.147 91.1628 434.4 90.4034 430.855 89.4258C427.299 88.4455 425.417 87.3649 424.333 86.2598C423.345 85.2524 422.623 83.8196 422.31 81.1823C421.984 78.4264 422.148 74.74 422.701 69.5711C423.591 61.2762 423.316 54.3556 421.049 49.3427C419.862 46.7186 418.094 44.5397 415.649 43.0596C413.232 41.5964 410.474 41.0104 407.604 41.0104C396.964 41.0104 388.981 48.276 383.502 58.479C378.001 68.7241 374.459 82.8327 372.821 98.8682C369.54 130.999 373.774 172.199 386.878 209.072C391.028 220.753 394.954 230.152 398.561 237.138C400.364 240.63 402.125 243.591 403.837 245.96C405.513 248.28 407.313 250.271 409.261 251.573C411.249 252.9 413.948 253.838 416.821 252.784C416.825 252.782 416.83 252.78 416.835 252.779C416.093 255.007 415.908 257.372 416.403 259.83C417.788 266.697 424.111 271.931 432.58 275.21L432.581 275.211C437.97 277.296 445.235 276.23 452.054 273.913C459.126 271.51 466.739 267.417 473.351 262.174L473.353 262.173C479.604 257.21 484.744 252.607 487.964 249.156C489.488 247.522 490.912 245.805 491.668 244.265C491.875 243.843 492.106 243.289 492.244 242.647C492.377 242.03 492.49 241.028 492.123 239.907C491.804 238.928 491.203 238.118 490.438 237.536C490.534 236.881 490.712 236.004 491.014 234.884C492.101 230.85 494.409 225.039 497.742 218.48L497.742 218.479C506.272 201.676 512.799 173.586 515.915 147.944C517.481 135.058 518.21 122.589 517.866 112.243C517.694 107.072 517.251 102.345 516.48 98.3175C515.724 94.369 514.589 90.7363 512.818 88.0154L509.115 90.4258C502.41 80.1273 498.252 79.8074 487.548 88.7731L484.712 85.3848C484.712 85.3852 484.711 85.3856 484.711 85.386C481.968 87.6799 476.302 89.8909 468.813 91.2217C461.502 92.521 453.137 92.8604 445.563 91.94ZM465.428 240.897L465.427 240.897L465.428 240.897ZM490.355 238.85C490.354 238.849 490.351 238.835 490.349 238.805C490.354 238.834 490.355 238.85 490.355 238.85Z" fill="#1A1C22" stroke="#1A1C22" stroke-width="8.83635"/>
<path d="M640.828 257.584H790.474V312.388H853.499V257.584H892.166V204.759H853.499V0.613281H770.988L640.828 205.672V257.584ZM791.692 204.759H707.202V202.323L789.256 72.4676H791.692V204.759Z" fill="#1A1C22"/>
</svg>
