<svg width="24" height="24" viewBox="0 0 24 24" fill="none" xmlns="http://www.w3.org/2000/svg">
<path d="M12.0201 20.5309C9.69011 20.5309 7.36011 20.1609 5.15011 19.4209C4.31011 19.1309 3.67011 18.5409 3.39011 17.7709C3.10011 17.0009 3.20011 16.1509 3.66011 15.3909L4.81011 13.4809C5.05011 13.0809 5.27011 12.2809 5.27011 11.8109V8.9209C5.27011 5.2009 8.30011 2.1709 12.0201 2.1709C15.7401 2.1709 18.7701 5.2009 18.7701 8.9209V11.8109C18.7701 12.2709 18.9901 13.0809 19.2301 13.4909L20.3701 15.3909C20.8001 16.1109 20.8801 16.9809 20.5901 17.7709C20.3001 18.5609 19.6701 19.1609 18.8801 19.4209C16.6801 20.1609 14.3501 20.5309 12.0201 20.5309ZM12.0201 3.6709C9.13011 3.6709 6.77011 6.0209 6.77011 8.9209V11.8109C6.77011 12.5409 6.47011 13.6209 6.10011 14.2509L4.95011 16.1609C4.73011 16.5309 4.67011 16.9209 4.80011 17.2509C4.92011 17.5909 5.22011 17.8509 5.63011 17.9909C9.81011 19.3909 14.2401 19.3909 18.4201 17.9909C18.7801 17.8709 19.0601 17.6009 19.1901 17.2409C19.3201 16.8809 19.2901 16.4909 19.0901 16.1609L17.9401 14.2509C17.5601 13.6009 17.2701 12.5309 17.2701 11.8009V8.9209C17.2701 6.0209 14.9201 3.6709 12.0201 3.6709Z" fill="#9E9E9E"/>
<path d="M13.8804 3.94066C13.8104 3.94066 13.7404 3.93066 13.6704 3.91066C13.3804 3.83066 13.1004 3.77066 12.8304 3.73066C11.9804 3.62066 11.1604 3.68066 10.3904 3.91066C10.1104 4.00066 9.81036 3.91066 9.62036 3.70066C9.43036 3.49066 9.37036 3.19066 9.48036 2.92066C9.89036 1.87066 10.8904 1.18066 12.0304 1.18066C13.1704 1.18066 14.1704 1.86066 14.5804 2.92066C14.6804 3.19066 14.6304 3.49066 14.4404 3.70066C14.2904 3.86066 14.0804 3.94066 13.8804 3.94066Z" fill="#9E9E9E"/>
<path d="M12.0203 22.8105C11.0303 22.8105 10.0703 22.4105 9.37026 21.7105C8.67026 21.0105 8.27026 20.0505 8.27026 19.0605H9.77026C9.77026 19.6505 10.0103 20.2305 10.4303 20.6505C10.8503 21.0705 11.4303 21.3105 12.0203 21.3105C13.2603 21.3105 14.2703 20.3005 14.2703 19.0605H15.7703C15.7703 21.1305 14.0903 22.8105 12.0203 22.8105Z" fill="#9E9E9E"/>
</svg>
