<svg viewBox="0 0 16 16" fill="none" xmlns="http://www.w3.org/2000/svg">
  <path d="M 9.4 12.9 L 9.4 3.1 C 9.4 2.326 10.027 1.7 10.8 1.7 L 11.5 1.7 C 12.273 1.7 12.9 2.326 12.9 3.1 L 12.9 12.9 C 12.9 13.673 12.273 14.3 11.5 14.3 L 10.8 14.3 C 10.027 14.3 9.4 13.673 9.4 12.9 Z" stroke-width="2" stroke-linecap="round" stroke-linejoin="round" style="stroke: rgb(255, 175, 0);"/>
  <path d="M 6.6 12.9 L 6.6 3.1 C 6.6 2.326 5.973 1.7 5.2 1.7 L 4.5 1.7 C 3.727 1.7 3.1 2.326 3.1 3.1 L 3.1 12.9 C 3.1 13.673 3.727 14.3 4.5 14.3 L 5.2 14.3 C 5.973 14.3 6.6 13.673 6.6 12.9 Z" stroke-width="2" stroke-linecap="round" stroke-linejoin="round" style="stroke: rgb(255, 175, 0);"/>
</svg>