<svg width="40" height="39" viewBox="0 0 40 39" fill="none" xmlns="http://www.w3.org/2000/svg">
<rect x="0.500488" y="0.5" width="39" height="37.7989" rx="9.5" fill="#282C35" stroke="#282C35"/>
<path d="M20 19V25" stroke="white" stroke-width="1.5" stroke-linecap="round"/>
<path d="M20 25C18.3264 25 16.8697 26.012 16.1177 27.505C15.7585 28.218 16.2739 29 16.9588 29H23.0412C23.7261 29 24.2415 28.218 23.8823 27.505C23.1303 26.012 21.6736 25 20 25Z" stroke="white" stroke-width="1.5" stroke-linecap="round"/>
<path d="M13 12H11.9847C10.9982 12 10.5049 12 10.2002 12.3705C9.89541 12.7411 9.98478 13.156 10.1635 13.9858C10.5049 15.5709 11.2455 16.9634 12.2489 18" stroke="white" stroke-width="1.5" stroke-linecap="round"/>
<path d="M27 12H28.0153C29.0018 12 29.4951 12 29.7998 12.3705C30.1046 12.7411 30.0152 13.156 29.8365 13.9858C29.4951 15.5709 28.7545 16.9634 27.7511 18" stroke="white" stroke-width="1.5" stroke-linecap="round"/>
<path d="M20 19C23.866 19 27 15.8831 27 12.0382C27 11.9374 26.9978 11.8371 26.9936 11.7373C26.9508 10.7381 26.9295 10.2384 26.2523 9.61922C25.5751 9 24.8247 9 23.324 9H16.676C15.1753 9 14.4249 9 13.7477 9.61922C13.0705 10.2384 13.0492 10.7381 13.0064 11.7373C13.0022 11.8371 13 11.9374 13 12.0382C13 15.8831 16.134 19 20 19Z" stroke="white" stroke-width="1.5" stroke-linecap="round"/>
</svg>
