<svg width="40" height="39" viewBox="0 0 40 39" fill="none" xmlns="http://www.w3.org/2000/svg">
<rect x="0.500488" y="0.5" width="39" height="37.7989" rx="9.5" fill="#282C35" stroke="#282C35"/>
<path d="M27 16C27 17.45 26.57 18.78 25.83 19.89C24.75 21.49 23.04 22.62 21.05 22.91C20.71 22.97 20.36 23 20 23C19.64 23 19.29 22.97 18.95 22.91C16.96 22.62 15.25 21.49 14.17 19.89C13.43 18.78 13 17.45 13 16C13 12.13 16.13 9 20 9C23.87 9 27 12.13 27 16Z" stroke="white" stroke-width="1.5" stroke-linecap="round" stroke-linejoin="round"/>
<path d="M29.2501 25.4704L27.6001 25.8604C27.2301 25.9504 26.9401 26.2304 26.8601 26.6004L26.5101 28.0704C26.3201 28.8704 25.3001 29.1104 24.7701 28.4804L20.0001 23.0004L15.2301 28.4904C14.7001 29.1204 13.6801 28.8804 13.4901 28.0804L13.1401 26.6104C13.0501 26.2404 12.7601 25.9504 12.4001 25.8704L10.7501 25.4804C9.99008 25.3004 9.72008 24.3504 10.2701 23.8004L14.1701 19.9004C15.2501 21.5004 16.9601 22.6304 18.9501 22.9204C19.2901 22.9804 19.6401 23.0104 20.0001 23.0104C20.3601 23.0104 20.7101 22.9804 21.0501 22.9204C23.0401 22.6304 24.7501 21.5004 25.8301 19.9004L29.7301 23.8004C30.2801 24.3404 30.0101 25.2904 29.2501 25.4704Z" stroke="white" stroke-width="1.5" stroke-linecap="round" stroke-linejoin="round"/>
<path d="M20.58 12.98L21.17 14.16C21.25 14.32 21.46 14.48 21.65 14.51L22.72 14.69C23.4 14.8 23.56 15.3 23.07 15.79L22.24 16.62C22.1 16.76 22.02 17.03 22.07 17.23L22.31 18.26C22.5 19.07 22.07 19.39 21.35 18.96L20.35 18.37C20.17 18.26 19.87 18.26 19.69 18.37L18.69 18.96C17.97 19.38 17.54 19.07 17.73 18.26L17.97 17.23C18.01 17.04 17.94 16.76 17.8 16.62L16.97 15.79C16.48 15.3 16.64 14.81 17.32 14.69L18.39 14.51C18.57 14.48 18.78 14.32 18.86 14.16L19.45 12.98C19.74 12.34 20.26 12.34 20.58 12.98Z" stroke="white" stroke-width="1.5" stroke-linecap="round" stroke-linejoin="round"/>
<rect x="8.5" y="7.5" width="23" height="23" stroke="#282C35"/>
</svg>
