<svg width="18" height="18" viewBox="0 0 18 18" fill="none" xmlns="http://www.w3.org/2000/svg">
<path d="M8.62451 16.3125C4.38701 16.3125 0.937012 12.8625 0.937012 8.625C0.937012 4.3875 4.38701 0.9375 8.62451 0.9375C12.862 0.9375 16.312 4.3875 16.312 8.625C16.312 12.8625 12.862 16.3125 8.62451 16.3125ZM8.62451 2.0625C5.00201 2.0625 2.06201 5.01 2.06201 8.625C2.06201 12.24 5.00201 15.1875 8.62451 15.1875C12.247 15.1875 15.187 12.24 15.187 8.625C15.187 5.01 12.247 2.0625 8.62451 2.0625Z" fill="#9E9E9E"/>
<path d="M16.4996 17.0626C16.3571 17.0626 16.2146 17.0101 16.1021 16.8976L14.6021 15.3976C14.3846 15.1801 14.3846 14.8201 14.6021 14.6026C14.8196 14.3851 15.1796 14.3851 15.3971 14.6026L16.8971 16.1026C17.1146 16.3201 17.1146 16.6801 16.8971 16.8976C16.7846 17.0101 16.6421 17.0626 16.4996 17.0626Z" fill="#9E9E9E"/>
</svg>
