<svg viewBox="0 0 16 16" style="width: 1em; height: 1em;vertical-align: middle;fill: currentColor;overflow: hidden;" xmlns="http://www.w3.org/2000/svg">
  <path d="M 2.054 16 C 0.825 16 0 15.052 0 13.64 L 0 2.36 C 0 0.948 0.825 0 2.054 0 C 2.474 0 2.911 0.115 3.352 0.343 L 14.661 6.185 C 15.826 6.787 16 7.581 16 8 C 16 8.419 15.826 9.213 14.661 9.814 L 3.351 15.657 C 2.911 15.885 2.474 16 2.054 16 Z M 2.054 1.327 C 1.408 1.327 1.338 2.049 1.338 2.36 L 1.338 13.64 C 1.338 13.951 1.408 14.673 2.054 14.673 C 2.254 14.673 2.489 14.606 2.733 14.48 L 14.043 8.638 C 14.499 8.402 14.662 8.154 14.662 8 C 14.662 7.847 14.499 7.599 14.043 7.363 L 2.733 1.52 C 2.489 1.394 2.254 1.327 2.054 1.327 Z" style="fill: rgb(159, 239, 0);"/>
</svg>