<svg width="19" height="18" viewBox="0 0 19 18" fill="none" xmlns="http://www.w3.org/2000/svg">
<path fill-rule="evenodd" clip-rule="evenodd" d="M9.31085 17.7848C11.643 17.7848 13.8796 16.8584 15.5286 15.2093C17.1777 13.5602 18.1041 11.3236 18.1041 8.99152C18.1041 6.6594 17.1777 4.42279 15.5286 2.77373C13.8796 1.12467 11.643 0.198242 9.31085 0.198242C6.97873 0.198242 4.74213 1.12467 3.09307 2.77373C1.44401 4.42279 0.517578 6.6594 0.517578 8.99152C0.517578 11.3236 1.44401 13.5602 3.09307 15.2093C4.74213 16.8584 6.97873 17.7848 9.31085 17.7848ZM10.41 4.59488C10.41 4.30337 10.2942 4.02379 10.0881 3.81766C9.88195 3.61153 9.60237 3.49572 9.31085 3.49572C9.01934 3.49572 8.73976 3.61153 8.53363 3.81766C8.3275 4.02379 8.2117 4.30337 8.2117 4.59488V8.99152C8.21176 9.28301 8.3276 9.56254 8.53375 9.76862L11.6422 12.8781C11.7443 12.9803 11.8655 13.0613 11.999 13.1165C12.1324 13.1718 12.2754 13.2003 12.4198 13.2003C12.5643 13.2003 12.7073 13.1718 12.8407 13.1165C12.9741 13.0613 13.0954 12.9803 13.1975 12.8781C13.2996 12.776 13.3806 12.6548 13.4359 12.5214C13.4912 12.3879 13.5196 12.2449 13.5196 12.1005C13.5196 11.9561 13.4912 11.8131 13.4359 11.6796C13.3806 11.5462 13.2996 11.425 13.1975 11.3228L10.41 8.53647V4.59488Z" fill="#9E9E9E"/>
</svg>
