<svg width="91" height="93" viewBox="0 0 91 93" fill="none" xmlns="http://www.w3.org/2000/svg">
<rect x="0.353846" y="0.353846" width="90.2923" height="92.2923" rx="45.1462" fill="#282C35" stroke="#6D7D93" stroke-width="0.707692" stroke-dasharray="3.54 3.54"/>
<path fill-rule="evenodd" clip-rule="evenodd" d="M37.9999 36.7584C38.74 36.2639 39.61 36 40.5 36C41.0714 36 41.5346 36.4632 41.5346 37.0346C41.5346 37.6061 41.0714 38.0693 40.5 38.0693C40.0193 38.0693 39.5493 38.2118 39.1496 38.4789C38.7498 38.746 38.4383 39.1256 38.2543 39.5698C38.0703 40.014 38.0222 40.5027 38.116 40.9742C38.2098 41.4457 38.4413 41.8788 38.7812 42.2188C39.1212 42.5587 39.5543 42.7902 40.0258 42.884C40.4973 42.9778 40.986 42.9297 41.4302 42.7457C41.8744 42.5617 42.254 42.2502 42.5211 41.8504C42.7882 41.4507 42.9307 40.9807 42.9307 40.5C42.9307 39.9286 43.3939 39.4654 43.9654 39.4654C44.5368 39.4654 45 39.9286 45 40.5C45 41.39 44.7361 42.26 44.2416 43.0001C43.7471 43.7401 43.0443 44.3169 42.2221 44.6575C41.3998 44.998 40.495 45.0872 39.6221 44.9135C38.7492 44.7399 37.9474 44.3113 37.318 43.682C36.6887 43.0526 36.2601 42.2508 36.0865 41.3779C35.9128 40.505 36.0019 39.6002 36.3425 38.7779C36.6831 37.9557 37.2599 37.2529 37.9999 36.7584Z" fill="#6D7D93"/>
<path fill-rule="evenodd" clip-rule="evenodd" d="M62.9802 42C63.5434 42 64 42.4661 64 43.041V51.7574C64 56.2164 63.1375 59.6085 60.9439 61.8604C58.7489 64.1136 55.4407 65 51.094 65H40.906C36.5606 65 33.2526 64.114 31.0572 61.861C28.8632 59.6094 28 56.2173 28 51.7574V48.2528C28 47.6779 28.4566 47.2118 29.0198 47.2118C29.5829 47.2118 30.0395 47.6779 30.0395 48.2528V51.7574C30.0395 56.014 30.8759 58.7227 32.5032 60.3928C34.1292 62.0615 36.7643 62.9181 40.906 62.9181H51.094C55.2371 62.9181 57.8721 62.0611 59.4977 60.3923C61.1248 58.7221 61.9605 56.0134 61.9605 51.7574V43.041C61.9605 42.4661 62.4171 42 62.9802 42Z" fill="#6D7D93"/>
<path fill-rule="evenodd" clip-rule="evenodd" d="M31.0997 32.0753C33.3242 29.8682 36.6763 29 41.0827 29H47.9716C48.5396 29 49 29.4568 49 30.0203C49 30.5838 48.5396 31.0406 47.9716 31.0406H41.0827C36.8792 31.0406 34.2042 31.8811 32.5541 33.5182C30.9039 35.1554 30.0568 37.8094 30.0568 41.9797C30.0568 42.5432 29.5964 43 29.0284 43C28.4604 43 28 42.5432 28 41.9797C28 37.608 28.8751 34.2823 31.0997 32.0753Z" fill="#6D7D93"/>
<path fill-rule="evenodd" clip-rule="evenodd" d="M51 35C51 34.4477 51.4792 34 52.0704 34H61.9296C62.5208 34 63 34.4477 63 35C63 35.5523 62.5208 36 61.9296 36H52.0704C51.4792 36 51 35.5523 51 35Z" fill="#6D7D93"/>
<path fill-rule="evenodd" clip-rule="evenodd" d="M57.0003 29C57.5528 29 58.0007 29.4792 58.0007 30.0704V39.9296C58.0007 40.5208 57.5528 41 57.0003 41C56.4479 41 56 40.5208 56 39.9296V30.0704C56 29.4792 56.4479 29 57.0003 29Z" fill="#6D7D93"/>
<path fill-rule="evenodd" clip-rule="evenodd" d="M56.0496 48.675L48.9723 54.8014L48.9535 54.8173C48.0931 55.5267 47.0135 55.9145 45.8993 55.9145C44.7851 55.9145 43.7055 55.5267 42.8451 54.8173C42.8358 54.8096 42.8267 54.8018 42.8177 54.7939L42.2713 54.3101C41.8139 53.941 41.2519 53.7253 40.6651 53.694C40.0746 53.6624 39.4894 53.8191 38.9934 54.1414L30.5972 59.8241C30.1286 60.1413 29.492 60.0177 29.1755 59.5481C28.859 59.0784 28.9823 58.4405 29.451 58.1233L37.8681 52.4264C38.7295 51.8634 39.7473 51.5897 40.7741 51.6445C41.801 51.6994 42.7839 52.0802 43.5806 52.7318C43.5909 52.7402 43.6011 52.7489 43.6111 52.7578L44.1591 53.2429C44.6508 53.6434 45.2653 53.8622 45.8993 53.8622C46.5351 53.8622 47.1512 53.6422 47.6436 53.2396L54.7209 47.1131L54.7397 47.0972C55.6002 46.3878 56.6797 46 57.7939 46C58.9081 46 59.9877 46.3878 60.8481 47.0972L60.867 47.1132L63.6454 49.5185C64.0734 49.889 64.1206 50.537 63.7509 50.9659C63.3812 51.3947 62.7345 51.4421 62.3066 51.0716L59.5382 48.6749C59.0458 48.2723 58.4297 48.0523 57.7939 48.0523C57.1582 48.0523 56.5421 48.2723 56.0496 48.675Z" fill="#6D7D93"/>
</svg>
