<?xml version="1.0" encoding="utf-8"?>
<svg viewBox="0 0 316.7 140.7" xmlns="http://www.w3.org/2000/svg">
  <rect width="316" height="140" style="fill: rgb(40, 44, 53); stroke: rgb(109, 125, 147); stroke-width: 0.7px; stroke-dasharray: 3.54, 3.54;"/>
  <g transform="matrix(1, 0, 0, 1, -129.364014, -163.906006)">
    <path fill-rule="evenodd" clip-rule="evenodd" d="M 279.364 223.665 C 280.104 223.17 280.974 222.906 281.864 222.906 C 282.435 222.906 282.898 223.369 282.898 223.941 C 282.898 224.512 282.435 224.975 281.864 224.975 C 281.383 224.975 280.913 225.118 280.513 225.385 C 280.113 225.652 279.802 226.032 279.618 226.476 C 279.434 226.92 279.386 227.409 279.48 227.88 C 279.573 228.352 279.805 228.785 280.145 229.125 C 280.485 229.465 280.918 229.696 281.389 229.79 C 281.861 229.884 282.35 229.836 282.794 229.652 C 283.238 229.468 283.618 229.156 283.885 228.757 C 284.152 228.357 284.294 227.887 284.294 227.406 C 284.294 226.835 284.758 226.372 285.329 226.372 C 285.9 226.372 286.364 226.835 286.364 227.406 C 286.364 228.296 286.1 229.166 285.605 229.906 C 285.111 230.646 284.408 231.223 283.586 231.564 C 282.763 231.904 281.859 231.993 280.986 231.82 C 280.113 231.646 279.311 231.217 278.682 230.588 C 278.052 229.959 277.624 229.157 277.45 228.284 C 277.276 227.411 277.366 226.506 277.706 225.684 C 278.047 224.862 278.624 224.159 279.364 223.665 Z" fill="#6D7D93"/>
    <path fill-rule="evenodd" clip-rule="evenodd" d="M 304.344 228.906 C 304.907 228.906 305.364 229.372 305.364 229.947 L 305.364 238.664 C 305.364 243.123 304.501 246.515 302.308 248.767 C 300.113 251.02 296.804 251.906 292.458 251.906 L 282.27 251.906 C 277.924 251.906 274.616 251.02 272.421 248.767 C 270.227 246.516 269.364 243.123 269.364 238.664 L 269.364 235.159 C 269.364 234.584 269.82 234.118 270.383 234.118 C 270.947 234.118 271.403 234.584 271.403 235.159 L 271.403 238.664 C 271.403 242.92 272.24 245.629 273.867 247.299 C 275.493 248.968 278.128 249.824 282.27 249.824 L 292.458 249.824 C 296.601 249.824 299.236 248.967 300.861 247.298 C 302.488 245.628 303.324 242.92 303.324 238.664 L 303.324 229.947 C 303.324 229.372 303.781 228.906 304.344 228.906 Z" fill="#6D7D93"/>
    <path fill-rule="evenodd" clip-rule="evenodd" d="M 272.463 218.981 C 274.688 216.774 278.04 215.906 282.446 215.906 L 289.335 215.906 C 289.903 215.906 290.364 216.363 290.364 216.926 C 290.364 217.49 289.903 217.947 289.335 217.947 L 282.446 217.947 C 278.243 217.947 275.568 218.787 273.918 220.424 C 272.268 222.062 271.42 224.716 271.42 228.886 C 271.42 229.449 270.96 229.906 270.392 229.906 C 269.824 229.906 269.364 229.449 269.364 228.886 C 269.364 224.514 270.239 221.188 272.463 218.981 Z" fill="#6D7D93"/>
    <path fill-rule="evenodd" clip-rule="evenodd" d="M 292.364 221.906 C 292.364 221.354 292.843 220.906 293.434 220.906 L 303.293 220.906 C 303.884 220.906 304.364 221.354 304.364 221.906 C 304.364 222.458 303.884 222.906 303.293 222.906 L 293.434 222.906 C 292.843 222.906 292.364 222.458 292.364 221.906 Z" fill="#6D7D93"/>
    <path fill-rule="evenodd" clip-rule="evenodd" d="M 298.364 215.906 C 298.916 215.906 299.364 216.385 299.364 216.977 L 299.364 226.836 C 299.364 227.427 298.916 227.906 298.364 227.906 C 297.812 227.906 297.364 227.427 297.364 226.836 L 297.364 216.977 C 297.364 216.385 297.812 215.906 298.364 215.906 Z" fill="#6D7D93"/>
    <path fill-rule="evenodd" clip-rule="evenodd" d="M 297.413 235.581 L 290.336 241.708 L 290.317 241.723 C 289.457 242.433 288.377 242.821 287.263 242.821 C 286.149 242.821 285.069 242.433 284.209 241.723 C 284.199 241.716 284.19 241.708 284.181 241.7 L 283.635 241.216 C 283.178 240.847 282.616 240.631 282.029 240.6 C 281.438 240.569 280.853 240.725 280.357 241.048 L 271.961 246.73 C 271.492 247.047 270.856 246.924 270.539 246.454 C 270.223 245.985 270.346 245.347 270.815 245.029 L 279.232 239.333 C 280.093 238.77 281.111 238.496 282.138 238.551 C 283.165 238.606 284.148 238.986 284.944 239.638 C 284.955 239.646 284.965 239.655 284.975 239.664 L 285.523 240.149 C 286.014 240.55 286.629 240.768 287.263 240.768 C 287.899 240.768 288.515 240.548 289.007 240.146 L 296.085 234.019 L 296.103 234.003 C 296.964 233.294 298.043 232.906 299.158 232.906 C 300.272 232.906 301.351 233.294 302.212 234.003 L 302.231 234.019 L 305.009 236.425 C 305.437 236.795 305.484 237.443 305.115 237.872 C 304.745 238.301 304.098 238.348 303.67 237.978 L 300.902 235.581 C 300.409 235.178 299.793 234.958 299.158 234.958 C 298.522 234.958 297.906 235.178 297.413 235.581 Z" fill="#6D7D93"/>
  </g>
</svg>