<svg width="24" height="24" viewBox="0 0 24 24" fill="none" xmlns="http://www.w3.org/2000/svg">
<path d="M10.4899 2.23055L5.49991 4.10054C4.34991 4.53054 3.40991 5.89053 3.40991 7.12053V14.5505C3.40991 15.7305 4.18992 17.2805 5.13992 17.9905L9.43991 21.2005C10.8499 22.2605 13.1699 22.2605 14.5799 21.2005L18.8799 17.9905C19.8299 17.2805 20.6099 15.7305 20.6099 14.5505V7.12053C20.6099 5.89053 19.6699 4.53054 18.5199 4.10054L13.5299 2.23055C12.6799 1.92055 11.3199 1.92055 10.4899 2.23055Z" stroke="#9E9E9E" stroke-width="1.5" stroke-linecap="round" stroke-linejoin="round"/>
<path d="M11.9999 10.9204C11.9599 10.9204 11.9099 10.9204 11.8699 10.9204C10.9299 10.8904 10.1799 10.1104 10.1799 9.1604C10.1799 8.1904 10.9699 7.40039 11.9399 7.40039C12.9099 7.40039 13.7 8.1904 13.7 9.1604C13.69 10.1204 12.9399 10.8904 11.9999 10.9204Z" stroke="#9E9E9E" stroke-width="1.5" stroke-linecap="round" stroke-linejoin="round"/>
<path d="M10.01 13.7213C9.05004 14.3613 9.05004 15.4113 10.01 16.0513C11.1 16.7813 12.89 16.7813 13.98 16.0513C14.94 15.4113 14.94 14.3613 13.98 13.7213C12.9 12.9913 11.11 12.9913 10.01 13.7213Z" stroke="#9E9E9E" stroke-width="1.5" stroke-linecap="round" stroke-linejoin="round"/>
</svg>
