<svg width="24" height="24" viewBox="0 0 24 24" fill="none" xmlns="http://www.w3.org/2000/svg">
<path d="M22 8.52V3.98C22 2.57 21.36 2 19.77 2L15.73 2C14.14 2 13.5 2.57 13.5 3.98V8.51C13.5 9.93 14.14 10.49 15.73 10.49H19.77C21.36 10.5 22 9.93 22 8.52Z" stroke="#9E9E9E"/>
<path d="M22 19.77V15.73C22 14.14 21.36 13.5 19.77 13.5H15.73C14.14 13.5 13.5 14.14 13.5 15.73V19.77C13.5 21.36 14.14 22 15.73 22H19.77C21.36 22 22 21.36 22 19.77Z" stroke="#9E9E9E"/>
<path d="M10.4998 8.52V3.98C10.4998 2.57 9.85976 2 8.26976 2L4.22976 2C2.63976 2 1.99976 2.57 1.99976 3.98L1.99976 8.51C1.99976 9.93 2.63976 10.49 4.22976 10.49H8.26976C9.85976 10.5 10.4998 9.93 10.4998 8.52Z" stroke="#9E9E9E"/>
<path d="M10.4998 19.77V15.73C10.4998 14.14 9.85976 13.5 8.26976 13.5H4.22976C2.63976 13.5 1.99976 14.14 1.99976 15.73L1.99976 19.77C1.99976 21.36 2.63976 22 4.22976 22H8.26976C9.85976 22 10.4998 21.36 10.4998 19.77Z" stroke="#9E9E9E"/>
</svg>
